<svg xmlns="http://www.w3.org/2000/svg" width="210" height="100" viewBox="100 30 210 100" fill="none">
<g>
<g>
<g filter="url(#filter0_d_2418_386)">
<path d="M179.92 80.9719C179.92 97.5181 166.507 110.932 149.96 110.932C133.414 110.932 120 97.5181 120 80.9719C120 64.4254 133.414 51.0117 149.96 51.0117C166.507 51.0117 179.92 64.4254 179.92 80.9719Z" fill="#FF6547"/>
</g>
<g filter="url(#filter1_d_2418_386)">
<path d="M145.348 101.527C146.191 100.722 147.557 100.722 148.399 101.527L156.565 109.318C157.407 110.121 157.407 111.425 156.565 112.228C155.723 113.033 154.357 113.033 153.514 112.228L145.348 104.437C144.506 103.634 144.506 102.33 145.348 101.527ZM153.514 96.0867C154.357 95.2832 155.723 95.2832 156.565 96.0867L167.504 106.525C168.346 107.328 168.346 108.632 167.504 109.435C166.662 110.239 165.296 110.239 164.453 109.435L153.514 98.9979C152.672 98.1944 152.672 96.8909 153.514 96.0867ZM161.064 90.0596C161.906 89.2558 163.272 89.2559 164.114 90.0596L176.132 101.527C176.975 102.33 176.975 103.634 176.132 104.437C175.289 105.241 173.924 105.241 173.081 104.437L161.064 92.9701C160.222 92.1666 160.221 90.8633 161.064 90.0596ZM156.679 48.4074C157.634 47.7286 158.985 47.9175 159.697 48.8292C160.409 49.7409 160.211 51.0306 159.255 51.7093L129.986 72.5008C127.899 73.9838 127.561 76.8419 129.25 78.7313C130.863 80.5354 133.703 80.7505 135.594 79.2116L135.767 79.0703L135.823 79.0258L141.889 74.7215L141.915 74.7032L141.941 74.6856L142.755 74.1432C148.757 70.1437 156.901 70.8282 162.077 75.7672L183.373 96.0867C184.216 96.8909 184.216 98.1944 183.373 98.9979C182.531 99.8014 181.165 99.8014 180.323 98.9979L159.027 78.6778C155.329 75.15 149.512 74.6611 145.225 77.5179L144.435 78.0441L138.514 82.2451L138.394 82.3436C134.69 85.3577 129.127 84.9362 125.968 81.4024C122.66 77.7019 123.322 72.1034 127.41 69.1989L156.679 48.4074Z" fill="#C6DDFE"/>
</g>
</g>
<path d="M207.902 86.336C205.494 86.336 203.324 85.846 201.392 84.866C199.488 83.858 197.99 82.472 196.898 80.708C195.834 78.944 195.302 76.942 195.302 74.702C195.302 72.462 195.834 70.46 196.898 68.696C197.99 66.932 199.488 65.56 201.392 64.58C203.324 63.572 205.494 63.068 207.902 63.068C210.282 63.068 212.354 63.572 214.118 64.58C215.91 65.56 217.212 66.974 218.024 68.822L212.942 71.552C211.766 69.48 210.072 68.444 207.86 68.444C206.152 68.444 204.738 69.004 203.618 70.124C202.498 71.244 201.938 72.77 201.938 74.702C201.938 76.634 202.498 78.16 203.618 79.28C204.738 80.4 206.152 80.96 207.86 80.96C210.1 80.96 211.794 79.924 212.942 77.852L218.024 80.624C217.212 82.416 215.91 83.816 214.118 84.824C212.354 85.832 210.282 86.336 207.902 86.336ZM244.104 63.404V86H237.846V83.396C236.222 85.356 233.87 86.336 230.79 86.336C228.662 86.336 226.73 85.86 224.994 84.908C223.286 83.956 221.942 82.598 220.962 80.834C219.982 79.07 219.492 77.026 219.492 74.702C219.492 72.378 219.982 70.334 220.962 68.57C221.942 66.806 223.286 65.448 224.994 64.496C226.73 63.544 228.662 63.068 230.79 63.068C233.674 63.068 235.928 63.978 237.552 65.798V63.404H244.104ZM231.924 80.96C233.576 80.96 234.948 80.4 236.04 79.28C237.132 78.132 237.678 76.606 237.678 74.702C237.678 72.798 237.132 71.286 236.04 70.166C234.948 69.018 233.576 68.444 231.924 68.444C230.244 68.444 228.858 69.018 227.766 70.166C226.674 71.286 226.128 72.798 226.128 74.702C226.128 76.606 226.674 78.132 227.766 79.28C228.858 80.4 230.244 80.96 231.924 80.96ZM272.178 63.404V86H265.92V83.354C265.08 84.334 264.044 85.076 262.812 85.58C261.608 86.084 260.32 86.336 258.948 86.336C255.98 86.336 253.614 85.482 251.85 83.774C250.114 82.066 249.246 79.532 249.246 76.172V63.404H255.798V75.206C255.798 78.846 257.324 80.666 260.376 80.666C261.972 80.666 263.246 80.162 264.198 79.154C265.15 78.118 265.626 76.592 265.626 74.576V63.404H272.178ZM260.544 60.968C255.616 60.968 253.138 58.798 253.11 54.458H257.394C257.422 55.438 257.688 56.208 258.192 56.768C258.724 57.3 259.494 57.566 260.502 57.566C261.51 57.566 262.28 57.3 262.812 56.768C263.372 56.208 263.652 55.438 263.652 54.458H268.02C267.992 58.798 265.5 60.968 260.544 60.968ZM278.003 63.404H284.513V72.224H294.341V63.404H300.893V86H294.341V77.558H284.513V86H278.003V63.404Z" fill="#CDDFF8"/>
<path d="M195.33 105.441V103.263H195.902C196.078 103.006 196.217 102.731 196.32 102.438C196.423 102.145 196.5 101.815 196.551 101.448C196.602 101.081 196.628 100.671 196.628 100.216V98.632H200.489V103.263H201.347V105.441H200.555V104H196.122V105.441H195.33ZM196.793 103.263H199.62V99.358H197.431V100.37C197.431 100.927 197.376 101.459 197.266 101.965C197.163 102.464 197.006 102.896 196.793 103.263ZM205.08 104.099C204.508 104.099 204.013 103.989 203.595 103.769C203.177 103.542 202.855 103.223 202.627 102.812C202.4 102.394 202.286 101.899 202.286 101.327C202.286 100.77 202.396 100.282 202.616 99.864C202.836 99.446 203.141 99.1197 203.529 98.885C203.925 98.6503 204.38 98.533 204.893 98.533C205.392 98.533 205.814 98.643 206.158 98.863C206.51 99.0757 206.782 99.38 206.972 99.776C207.163 100.165 207.258 100.638 207.258 101.195V101.525H202.979V100.92H206.653L206.466 101.074C206.466 100.487 206.334 100.033 206.07 99.71C205.806 99.38 205.421 99.215 204.915 99.215C204.549 99.215 204.233 99.2993 203.969 99.468C203.713 99.6367 203.515 99.8713 203.375 100.172C203.236 100.473 203.166 100.825 203.166 101.228V101.305C203.166 101.752 203.24 102.13 203.386 102.438C203.54 102.739 203.76 102.97 204.046 103.131C204.332 103.285 204.677 103.362 205.08 103.362C205.396 103.362 205.704 103.314 206.004 103.219C206.305 103.124 206.587 102.962 206.851 102.735L207.159 103.384C206.91 103.611 206.595 103.787 206.213 103.912C205.839 104.037 205.462 104.099 205.08 104.099ZM208.421 104.121L208.08 103.406C208.336 103.296 208.549 103.157 208.718 102.988C208.886 102.819 209.018 102.607 209.114 102.35C209.216 102.086 209.29 101.763 209.334 101.382C209.378 101.001 209.4 100.542 209.4 100.007V98.632H213.349V104H212.436V99.369H210.247V100.04C210.247 100.656 210.214 101.195 210.148 101.657C210.089 102.112 209.986 102.5 209.84 102.823C209.7 103.146 209.513 103.413 209.279 103.626C209.044 103.839 208.758 104.004 208.421 104.121ZM217.451 104.099C216.923 104.099 216.464 103.985 216.076 103.758C215.687 103.523 215.386 103.201 215.174 102.79C214.961 102.372 214.855 101.881 214.855 101.316C214.855 100.744 214.961 100.253 215.174 99.842C215.386 99.424 215.687 99.1013 216.076 98.874C216.464 98.6467 216.919 98.533 217.44 98.533C217.968 98.533 218.426 98.6467 218.815 98.874C219.203 99.1013 219.504 99.424 219.717 99.842C219.929 100.26 220.036 100.751 220.036 101.316C220.036 101.881 219.929 102.372 219.717 102.79C219.504 103.201 219.203 103.523 218.815 103.758C218.426 103.985 217.971 104.099 217.451 104.099ZM217.44 103.351C217.953 103.351 218.36 103.175 218.661 102.823C218.961 102.464 219.112 101.958 219.112 101.305C219.112 100.66 218.961 100.161 218.661 99.809C218.36 99.457 217.953 99.281 217.44 99.281C216.934 99.281 216.53 99.457 216.23 99.809C215.929 100.161 215.779 100.66 215.779 101.305C215.779 101.958 215.929 102.464 216.23 102.823C216.53 103.175 216.934 103.351 217.44 103.351ZM221.544 104V98.632H224.228C224.653 98.632 225.005 98.687 225.284 98.797C225.563 98.8997 225.768 99.0573 225.9 99.27C226.032 99.4753 226.098 99.732 226.098 100.04C226.098 100.37 225.988 100.649 225.768 100.876C225.548 101.103 225.255 101.246 224.888 101.305V101.195C225.181 101.21 225.431 101.276 225.636 101.393C225.841 101.51 225.999 101.664 226.109 101.855C226.226 102.046 226.285 102.266 226.285 102.515C226.285 102.97 226.113 103.333 225.768 103.604C225.423 103.868 224.939 104 224.316 104H221.544ZM222.424 103.373H224.272C224.639 103.373 224.921 103.3 225.119 103.153C225.317 102.999 225.416 102.775 225.416 102.482C225.416 102.181 225.317 101.958 225.119 101.811C224.921 101.657 224.639 101.58 224.272 101.58H222.424V103.373ZM222.424 100.953H224.184C224.514 100.953 224.771 100.88 224.954 100.733C225.145 100.579 225.24 100.366 225.24 100.095C225.24 99.8237 225.145 99.6183 224.954 99.479C224.771 99.3323 224.514 99.259 224.184 99.259H222.424V100.953ZM227.742 104V98.632H228.655V100.524H230.316C231.005 100.524 231.526 100.674 231.878 100.975C232.237 101.276 232.417 101.701 232.417 102.251C232.417 102.61 232.333 102.922 232.164 103.186C232.003 103.45 231.764 103.652 231.449 103.791C231.141 103.93 230.763 104 230.316 104H227.742ZM228.655 103.34H230.217C230.635 103.34 230.958 103.252 231.185 103.076C231.42 102.9 231.537 102.629 231.537 102.262C231.537 101.888 231.42 101.617 231.185 101.448C230.958 101.272 230.635 101.184 230.217 101.184H228.655V103.34ZM233.264 104V98.632H234.177V104H233.264ZM238.478 104.099C237.906 104.099 237.411 103.989 236.993 103.769C236.575 103.542 236.252 103.223 236.025 102.812C235.798 102.394 235.684 101.899 235.684 101.327C235.684 100.77 235.794 100.282 236.014 99.864C236.234 99.446 236.538 99.1197 236.927 98.885C237.323 98.6503 237.778 98.533 238.291 98.533C238.79 98.533 239.211 98.643 239.556 98.863C239.908 99.0757 240.179 99.38 240.37 99.776C240.561 100.165 240.656 100.638 240.656 101.195V101.525H236.377V100.92H240.051L239.864 101.074C239.864 100.487 239.732 100.033 239.468 99.71C239.204 99.38 238.819 99.215 238.313 99.215C237.946 99.215 237.631 99.2993 237.367 99.468C237.11 99.6367 236.912 99.8713 236.773 100.172C236.634 100.473 236.564 100.825 236.564 101.228V101.305C236.564 101.752 236.637 102.13 236.784 102.438C236.938 102.739 237.158 102.97 237.444 103.131C237.73 103.285 238.075 103.362 238.478 103.362C238.793 103.362 239.101 103.314 239.402 103.219C239.703 103.124 239.985 102.962 240.249 102.735L240.557 103.384C240.308 103.611 239.992 103.787 239.611 103.912C239.237 104.037 238.859 104.099 238.478 104.099ZM245.005 104V98.632H249.746V104H248.833V99.369H245.918V104H245.005ZM254.043 104.099C253.471 104.099 252.976 103.989 252.558 103.769C252.14 103.542 251.818 103.223 251.59 102.812C251.363 102.394 251.249 101.899 251.249 101.327C251.249 100.77 251.359 100.282 251.579 99.864C251.799 99.446 252.104 99.1197 252.492 98.885C252.888 98.6503 253.343 98.533 253.856 98.533C254.355 98.533 254.777 98.643 255.121 98.863C255.473 99.0757 255.745 99.38 255.935 99.776C256.126 100.165 256.221 100.638 256.221 101.195V101.525H251.942V100.92H255.616L255.429 101.074C255.429 100.487 255.297 100.033 255.033 99.71C254.769 99.38 254.384 99.215 253.878 99.215C253.512 99.215 253.196 99.2993 252.932 99.468C252.676 99.6367 252.478 99.8713 252.338 100.172C252.199 100.473 252.129 100.825 252.129 101.228V101.305C252.129 101.752 252.203 102.13 252.349 102.438C252.503 102.739 252.723 102.97 253.009 103.131C253.295 103.285 253.64 103.362 254.043 103.362C254.359 103.362 254.667 103.314 254.967 103.219C255.268 103.124 255.55 102.962 255.814 102.735L256.122 103.384C255.873 103.611 255.558 103.787 255.176 103.912C254.802 104.037 254.425 104.099 254.043 104.099ZM257.692 105.98V98.632H258.572V99.875H258.484C258.616 99.4643 258.854 99.138 259.199 98.896C259.551 98.654 259.969 98.533 260.453 98.533C260.937 98.533 261.355 98.6467 261.707 98.874C262.066 99.1013 262.345 99.424 262.543 99.842C262.741 100.253 262.84 100.744 262.84 101.316C262.84 101.873 262.741 102.365 262.543 102.79C262.352 103.208 262.077 103.531 261.718 103.758C261.358 103.985 260.937 104.099 260.453 104.099C259.976 104.099 259.565 103.978 259.221 103.736C258.876 103.494 258.638 103.175 258.506 102.779H258.605V105.98H257.692ZM260.255 103.362C260.768 103.362 261.175 103.182 261.476 102.823C261.776 102.464 261.927 101.958 261.927 101.305C261.927 100.652 261.776 100.15 261.476 99.798C261.175 99.446 260.768 99.27 260.255 99.27C259.749 99.27 259.345 99.446 259.045 99.798C258.744 100.15 258.594 100.652 258.594 101.305C258.594 101.958 258.744 102.464 259.045 102.823C259.345 103.182 259.749 103.362 260.255 103.362ZM266.837 104.099C266.265 104.099 265.77 103.989 265.352 103.769C264.934 103.542 264.612 103.223 264.384 102.812C264.157 102.394 264.043 101.899 264.043 101.327C264.043 100.77 264.153 100.282 264.373 99.864C264.593 99.446 264.898 99.1197 265.286 98.885C265.682 98.6503 266.137 98.533 266.65 98.533C267.149 98.533 267.571 98.643 267.915 98.863C268.267 99.0757 268.539 99.38 268.729 99.776C268.92 100.165 269.015 100.638 269.015 101.195V101.525H264.736V100.92H268.41L268.223 101.074C268.223 100.487 268.091 100.033 267.827 99.71C267.563 99.38 267.178 99.215 266.672 99.215C266.306 99.215 265.99 99.2993 265.726 99.468C265.47 99.6367 265.272 99.8713 265.132 100.172C264.993 100.473 264.923 100.825 264.923 101.228V101.305C264.923 101.752 264.997 102.13 265.143 102.438C265.297 102.739 265.517 102.97 265.803 103.131C266.089 103.285 266.434 103.362 266.837 103.362C267.153 103.362 267.461 103.314 267.761 103.219C268.062 103.124 268.344 102.962 268.608 102.735L268.916 103.384C268.667 103.611 268.352 103.787 267.97 103.912C267.596 104.037 267.219 104.099 266.837 104.099ZM270.475 104V98.632H274.292V99.369H271.388V104H270.475ZM277.661 104.099C277.133 104.099 276.674 103.985 276.286 103.758C275.897 103.523 275.596 103.201 275.384 102.79C275.171 102.372 275.065 101.881 275.065 101.316C275.065 100.744 275.171 100.253 275.384 99.842C275.596 99.424 275.897 99.1013 276.286 98.874C276.674 98.6467 277.129 98.533 277.65 98.533C278.178 98.533 278.636 98.6467 279.025 98.874C279.413 99.1013 279.714 99.424 279.927 99.842C280.139 100.26 280.246 100.751 280.246 101.316C280.246 101.881 280.139 102.372 279.927 102.79C279.714 103.201 279.413 103.523 279.025 103.758C278.636 103.985 278.181 104.099 277.661 104.099ZM277.65 103.351C278.163 103.351 278.57 103.175 278.871 102.823C279.171 102.464 279.322 101.958 279.322 101.305C279.322 100.66 279.171 100.161 278.871 99.809C278.57 99.457 278.163 99.281 277.65 99.281C277.144 99.281 276.74 99.457 276.44 99.809C276.139 100.161 275.989 100.66 275.989 101.305C275.989 101.958 276.139 102.464 276.44 102.823C276.74 103.175 277.144 103.351 277.65 103.351ZM281.754 104V98.632H284.438C284.863 98.632 285.215 98.687 285.494 98.797C285.772 98.8997 285.978 99.0573 286.11 99.27C286.242 99.4753 286.308 99.732 286.308 100.04C286.308 100.37 286.198 100.649 285.978 100.876C285.758 101.103 285.464 101.246 285.098 101.305V101.195C285.391 101.21 285.64 101.276 285.846 101.393C286.051 101.51 286.209 101.664 286.319 101.855C286.436 102.046 286.495 102.266 286.495 102.515C286.495 102.97 286.322 103.333 285.978 103.604C285.633 103.868 285.149 104 284.526 104H281.754ZM282.634 103.373H284.482C284.848 103.373 285.131 103.3 285.329 103.153C285.527 102.999 285.626 102.775 285.626 102.482C285.626 102.181 285.527 101.958 285.329 101.811C285.131 101.657 284.848 101.58 284.482 101.58H282.634V103.373ZM282.634 100.953H284.394C284.724 100.953 284.98 100.88 285.164 100.733C285.354 100.579 285.45 100.366 285.45 100.095C285.45 99.8237 285.354 99.6183 285.164 99.479C284.98 99.3323 284.724 99.259 284.394 99.259H282.634V100.953ZM290.229 104.099C289.701 104.099 289.243 103.985 288.854 103.758C288.465 103.523 288.165 103.201 287.952 102.79C287.739 102.372 287.633 101.881 287.633 101.316C287.633 100.744 287.739 100.253 287.952 99.842C288.165 99.424 288.465 99.1013 288.854 98.874C289.243 98.6467 289.697 98.533 290.218 98.533C290.746 98.533 291.204 98.6467 291.593 98.874C291.982 99.1013 292.282 99.424 292.495 99.842C292.708 100.26 292.814 100.751 292.814 101.316C292.814 101.881 292.708 102.372 292.495 102.79C292.282 103.201 291.982 103.523 291.593 103.758C291.204 103.985 290.75 104.099 290.229 104.099ZM290.218 103.351C290.731 103.351 291.138 103.175 291.439 102.823C291.74 102.464 291.89 101.958 291.89 101.305C291.89 100.66 291.74 100.161 291.439 99.809C291.138 99.457 290.731 99.281 290.218 99.281C289.712 99.281 289.309 99.457 289.008 99.809C288.707 100.161 288.557 100.66 288.557 101.305C288.557 101.958 288.707 102.464 289.008 102.823C289.309 103.175 289.712 103.351 290.218 103.351ZM294.333 105.98V98.632H295.213V99.875H295.125C295.257 99.4643 295.496 99.138 295.84 98.896C296.192 98.654 296.61 98.533 297.094 98.533C297.578 98.533 297.996 98.6467 298.348 98.874C298.708 99.1013 298.986 99.424 299.184 99.842C299.382 100.253 299.481 100.744 299.481 101.316C299.481 101.873 299.382 102.365 299.184 102.79C298.994 103.208 298.719 103.531 298.359 103.758C298 103.985 297.578 104.099 297.094 104.099C296.618 104.099 296.207 103.978 295.862 103.736C295.518 103.494 295.279 103.175 295.147 102.779H295.246V105.98H294.333ZM296.896 103.362C297.41 103.362 297.817 103.182 298.117 102.823C298.418 102.464 298.568 101.958 298.568 101.305C298.568 100.652 298.418 100.15 298.117 99.798C297.817 99.446 297.41 99.27 296.896 99.27C296.39 99.27 295.987 99.446 295.686 99.798C295.386 100.15 295.235 100.652 295.235 101.305C295.235 101.958 295.386 102.464 295.686 102.823C295.987 103.182 296.39 103.362 296.896 103.362ZM301.004 104V98.632H301.917V100.524H303.578C304.267 100.524 304.788 100.674 305.14 100.975C305.499 101.276 305.679 101.701 305.679 102.251C305.679 102.61 305.594 102.922 305.426 103.186C305.264 103.45 305.026 103.652 304.711 103.791C304.403 103.93 304.025 104 303.578 104H301.004ZM301.917 103.34H303.479C303.897 103.34 304.219 103.252 304.447 103.076C304.681 102.9 304.799 102.629 304.799 102.262C304.799 101.888 304.681 101.617 304.447 101.448C304.219 101.272 303.897 101.184 303.479 101.184H301.917V103.34ZM306.526 104V98.632H307.439V104H306.526Z" fill="#E8F1FC"/>
</g>
<defs>
<filter id="filter0_d_2418_386" x="101.949" y="32.9611" width="96.0232" height="96.0232" filterUnits="userSpaceOnUse" color-interpolation-filters="sRGB">
<feFlood flood-opacity="0" result="BackgroundImageFix"/>
<feColorMatrix in="SourceAlpha" type="matrix" values="0 0 0 0 0 0 0 0 0 0 0 0 0 0 0 0 0 0 127 0" result="hardAlpha"/>
<feOffset/>
<feGaussianBlur stdDeviation="9.02533"/>
<feComposite in2="hardAlpha" operator="out"/>
<feColorMatrix type="matrix" values="0 0 0 0 1 0 0 0 0 0.396078 0 0 0 0 0.278431 0 0 0 1 0"/>
<feBlend mode="normal" in2="BackgroundImageFix" result="effect1_dropShadow_2418_386"/>
<feBlend mode="normal" in="SourceGraphic" in2="effect1_dropShadow_2418_386" result="shape"/>
</filter>
<filter id="filter1_d_2418_386" x="122.022" y="46.9617" width="63.8225" height="68.5061" filterUnits="userSpaceOnUse" color-interpolation-filters="sRGB">
<feFlood flood-opacity="0" result="BackgroundImageFix"/>
<feColorMatrix in="SourceAlpha" type="matrix" values="0 0 0 0 0 0 0 0 0 0 0 0 0 0 0 0 0 0 127 0" result="hardAlpha"/>
<feOffset dy="0.798702"/>
<feGaussianBlur stdDeviation="0.918507"/>
<feComposite in2="hardAlpha" operator="out"/>
<feColorMatrix type="matrix" values="0 0 0 0 0 0 0 0 0 0 0 0 0 0 0 0 0 0 0.25 0"/>
<feBlend mode="normal" in2="BackgroundImageFix" result="effect1_dropShadow_2418_386"/>
<feBlend mode="normal" in="SourceGraphic" in2="effect1_dropShadow_2418_386" result="shape"/>
</filter>
</defs>
</svg>
