<svg width="104" height="104" viewBox="100 22 104 104" fill="none" xmlns="http://www.w3.org/2000/svg"><defs><filter id="filter0_d_2229_20056" x="101.988" y="24.9917" width="95.8174" height="95.8174" filterUnits="userSpaceOnUse" color-interpolation-filters="sRGB"><feFlood flood-opacity="0" result="BackgroundImageFix"/><feColorMatrix in="SourceAlpha" type="matrix" values="0 0 0 0 0 0 0 0 0 0 0 0 0 0 0 0 0 0 127 0" result="hardAlpha"/><feOffset/><feGaussianBlur stdDeviation="9.0061"/><feComposite in2="hardAlpha" operator="out"/><feColorMatrix type="matrix" values="0 0 0 0 1 0 0 0 0 0.396078 0 0 0 0 0.278431 0 0 0 1 0"/><feBlend mode="normal" in2="BackgroundImageFix" result="effect1_dropShadow_2229_20056"/><feBlend mode="normal" in="SourceGraphic" in2="effect1_dropShadow_2229_20056" result="shape"/></filter><filter id="filter1_d_2229_20056" x="122.017" y="38.9639" width="63.6818" height="68.3615" filterUnits="userSpaceOnUse" color-interpolation-filters="sRGB"><feFlood flood-opacity="0" result="BackgroundImageFix"/><feColorMatrix in="SourceAlpha" type="matrix" values="0 0 0 0 0 0 0 0 0 0 0 0 0 0 0 0 0 0 127 0" result="hardAlpha"/><feOffset dy="0.797"/><feGaussianBlur stdDeviation="0.91655"/><feComposite in2="hardAlpha" operator="out"/><feColorMatrix type="matrix" values="0 0 0 0 0 0 0 0 0 0 0 0 0 0 0 0 0 0 0.25 0"/><feBlend mode="normal" in2="BackgroundImageFix" result="effect1_dropShadow_2229_20056"/><feBlend mode="normal" in="SourceGraphic" in2="effect1_dropShadow_2229_20056" result="shape"/></filter></defs><g><g><g filter="url(#filter0_d_2229_20056)"><path d="M179.793 72.9003C179.793 89.4112 166.408 102.797 149.896 102.797C133.385 102.797 120 89.4112 120 72.9003C120 56.389 133.385 43.0039 149.896 43.0039C166.408 43.0039 179.793 56.389 179.793 72.9003Z" fill="#FF6547"/></g><g filter="url(#filter1_d_2229_20056)"><path d="M145.293 93.4125C146.133 92.61 147.497 92.61 148.337 93.4125L156.485 101.187C157.326 101.989 157.326 103.29 156.485 104.092C155.645 104.894 154.282 104.894 153.441 104.092L145.293 96.3168C144.452 95.515 144.452 94.2143 145.293 93.4125ZM153.441 87.9842C154.282 87.1824 155.645 87.1824 156.485 87.9842L167.401 98.4002C168.242 99.202 168.242 100.503 167.401 101.304C166.561 102.106 165.198 102.106 164.357 101.304L153.441 90.8892C152.601 90.0875 152.601 88.7868 153.441 87.9842ZM160.975 81.9699C161.815 81.1679 163.178 81.168 164.018 81.9699L176.011 93.4125C176.852 94.2143 176.852 95.515 176.011 96.3168C175.17 97.1186 173.807 97.1186 172.966 96.3168L160.975 84.8743C160.135 84.0725 160.134 82.772 160.975 81.9699ZM156.599 40.4065C157.552 39.7292 158.901 39.9177 159.611 40.8274C160.321 41.7372 160.123 43.0241 159.17 43.7014L129.964 64.4486C127.881 65.9284 127.544 68.7805 129.229 70.6658C130.838 72.4661 133.673 72.6807 135.559 71.1451L135.732 71.0041L135.787 70.9597L141.841 66.6646L141.866 66.6462L141.893 66.6287L142.705 66.0875C148.694 62.0965 156.821 62.7795 161.986 67.708L183.236 87.9842C184.077 88.7868 184.077 90.0875 183.236 90.8892C182.396 91.691 181.033 91.691 180.193 90.8892L158.942 70.6124C155.252 67.0921 149.448 66.6042 145.17 69.455L144.382 69.9801L138.473 74.1722L138.353 74.2704C134.657 77.2781 129.106 76.8575 125.953 73.3312C122.653 69.6386 123.313 64.052 127.393 61.1537L156.599 40.4065Z" fill="#C6DDFE"/></g></g></g></svg>